<svg xmlns="http://www.w3.org/2000/svg" id="Logo" width="143.391" height="50" viewBox="0 0 143.391 50">
    <defs>
        <style>
            .cls-1{fill:#0097bd}.cls-2{fill:#f48120;fill-rule:evenodd}
        </style>
    </defs>
    <g id="Group_77" transform="translate(0.156 13.396)">
        <path id="Path_80" d="M85.9 191.448a7.9 7.9 0 0 1-.575 3.019 6.155 6.155 0 0 1-1.711 2.377 8.526 8.526 0 0 1-2.9 1.6 13.367 13.367 0 0 1-4.2.567q-1.694 0-3.191-.123a22.927 22.927 0 0 1-2.633-.353v-4.954h.592q.79.3 1.645.551a7.825 7.825 0 0 0 2.188.255 6.127 6.127 0 0 0 2.657-.461 2.767 2.767 0 0 0 1.324-1.285 4.683 4.683 0 0 0 .428-1.77q.05-.963.05-2.462v-9.766h-5.598v-4.503H85.9z" class="cls-1" transform="translate(-70.702 -173.037)"/>
        <path id="Path_81" d="M130.794 195.113a9.635 9.635 0 0 1-2.657 7.181q-2.658 2.625-7.461 2.624t-7.462-2.624a11.042 11.042 0 0 1 .017-14.388 10.193 10.193 0 0 1 7.445-2.616q4.837 0 7.477 2.632a9.7 9.7 0 0 1 2.641 7.191zm-7.288 4.492a4.754 4.754 0 0 0 .864-1.7 10.356 10.356 0 0 0 .288-2.755 10.69 10.69 0 0 0-.3-2.731 4.789 4.789 0 0 0-.822-1.761 2.9 2.9 0 0 0-1.267-.954 4.486 4.486 0 0 0-1.6-.279 4.657 4.657 0 0 0-1.522.23 3.082 3.082 0 0 0-1.275.922 4.732 4.732 0 0 0-.864 1.76 10.424 10.424 0 0 0-.32 2.814 10.861 10.861 0 0 0 .279 2.624 4.611 4.611 0 0 0 .823 1.785 3.126 3.126 0 0 0 1.259.938 4.674 4.674 0 0 0 3.209.025 2.816 2.816 0 0 0 1.247-.923z" class="cls-1" transform="translate(-91.093 -178.742)"/>
        <path id="Path_82" d="M179.969 187.989a10.39 10.39 0 0 1-2.408 7.108 7.658 7.658 0 0 1-6.006 2.748 10.034 10.034 0 0 1-2.711-.329 9.2 9.2 0 0 1-2.218-.954l-.248.922h-5.692v-25.6h5.94v9.049a14.364 14.364 0 0 1 2.785-1.761 7.562 7.562 0 0 1 3.278-.674 6.33 6.33 0 0 1 5.39 2.525 11.4 11.4 0 0 1 1.89 6.966zm-6.1.124a7.142 7.142 0 0 0-.838-3.795 3.248 3.248 0 0 0-2.987-1.33 6.221 6.221 0 0 0-1.723.255 7.2 7.2 0 0 0-1.691.731v9.265a6.165 6.165 0 0 0 1.215.312 9.852 9.852 0 0 0 1.379.082 4.291 4.291 0 0 0 3.5-1.38 6.351 6.351 0 0 0 1.141-4.14z" class="cls-1" transform="translate(-116.741 -171.882)"/>
        <path id="Path_83" d="M223.965 177.036h-8.753v21.6h-3.258v-21.6H203.2v-2.9h20.764z" class="cls-1" transform="translate(-138.492 -173.037)"/>
        <path id="Path_84" d="M258.559 195.647h-13.54a7.823 7.823 0 0 0 .51 2.953 5.458 5.458 0 0 0 3.43 3.25 8.1 8.1 0 0 0 2.591.4 10.241 10.241 0 0 0 3.776-.749 9.282 9.282 0 0 0 2.707-1.473h.165v3.372a25.454 25.454 0 0 1-3.192 1.1 12.963 12.963 0 0 1-3.422.444 9.856 9.856 0 0 1-7.14-2.477q-2.567-2.475-2.567-7.033a10.1 10.1 0 0 1 2.46-7.157 8.421 8.421 0 0 1 6.474-2.649 7.435 7.435 0 0 1 5.733 2.172 8.736 8.736 0 0 1 2.015 6.17zm-3.011-2.37a5.467 5.467 0 0 0-1.226-3.768 4.722 4.722 0 0 0-3.677-1.332 5.363 5.363 0 0 0-3.957 1.464 5.685 5.685 0 0 0-1.67 3.636z" class="cls-1" transform="translate(-158.28 -178.914)"/>
        <path id="Path_85" d="M297.475 199.286a5 5 0 0 1-2.081 4.13 9.061 9.061 0 0 1-5.685 1.612 13.631 13.631 0 0 1-3.743-.485 16.645 16.645 0 0 1-2.854-1.062v-3.471h.164a12.408 12.408 0 0 0 3.258 1.752 10.072 10.072 0 0 0 3.439.65 6.466 6.466 0 0 0 3.192-.658 2.217 2.217 0 0 0 1.152-2.073 2.093 2.093 0 0 0-.625-1.645 5.634 5.634 0 0 0-2.4-.955q-.659-.148-1.72-.345t-1.933-.428a6.423 6.423 0 0 1-3.43-1.884 4.675 4.675 0 0 1-1.012-3.052 5 5 0 0 1 .469-2.139 5.176 5.176 0 0 1 1.423-1.793 6.821 6.821 0 0 1 2.345-1.226 10.473 10.473 0 0 1 3.184-.453 14.3 14.3 0 0 1 3.332.4 12.588 12.588 0 0 1 2.805.979v3.307h-.165a11.081 11.081 0 0 0-2.879-1.472 9.912 9.912 0 0 0-3.324-.6 5.815 5.815 0 0 0-2.862.65 2.282 2.282 0 0 0-.461 3.644 5.529 5.529 0 0 0 2.238.938q.855.2 1.917.4t1.768.362a6.552 6.552 0 0 1 3.324 1.695 4.464 4.464 0 0 1 1.164 3.222z" class="cls-1" transform="translate(-179.377 -178.983)"/>
        <path id="Path_86" d="M329.008 199.352a16.8 16.8 0 0 1-1.9.378 13.04 13.04 0 0 1-1.835.148 5.683 5.683 0 0 1-4.273-1.513q-1.464-1.514-1.464-4.853v-9.773h-2.089v-2.6h2.089v-5.281h3.093v5.281h6.384v2.6h-6.384v8.375q0 1.448.066 2.262a3.7 3.7 0 0 0 .461 1.522 2.217 2.217 0 0 0 1 .963 4.671 4.671 0 0 0 1.933.3 6.066 6.066 0 0 0 1.579-.222 11.028 11.028 0 0 0 1.184-.37h.165z" class="cls-1" transform="translate(-196.942 -173.916)"/>
    </g>
    <g id="Group_78" transform="translate(124.389)">
        <path id="Path_87" d="M351.556 165.449c-.518-.1-.535-.3-1.131-.915l-1.027-1.056c-2.635-2.711-.608-2.781 4.651-5.444.331-.168.981-.586 1.386-.493a.7.7 0 0 1 .265 1.212c-.478.487-4.283 2.993-4.665 3.468-.574.711.409 2.329.521 3.228z" class="cls-2" transform="translate(-336.935 -151.141)"/>
        <path id="Path_88" d="M333.111 151.526a19.386 19.386 0 0 1 .5 2.926c.176 1.137.25 2.17-.858 2.431-.382.09-7.044-.882-7.435-1.22a.721.721 0 0 1 .161-1.163c1.028-.437 5.834.457 6.592-.493.41-.519.515-2.231 1.04-2.481z" class="cls-2" transform="translate(-325.086 -148.071)"/>
        <path id="Path_89" d="M349.552 150.912c-.171.377-.905.6-1.28.787-.479.243-.922.464-1.383.7-3.08 1.563-2.8-1.032-3.27-4.1a16.59 16.59 0 0 1-.412-3.212.67.67 0 0 1 .591-.631l.073-.005a.626.626 0 0 1 .565.3c.73 1.22 1.428 5.585 2.292 5.968.738.326 2.179-.156 2.824.193z" class="cls-2" transform="translate(-334.353 -144.452)"/>
        <path id="Path_90" d="M330.939 163.674c.289-.166 4.159.379 4.652.9a1.5 1.5 0 0 1 .226 1.583c-.338.821-.874 1.7-1.32 2.536-.472.888-.863 1.7-1.349 2.611-.273.511-.353.966-.831 1.068-2.471.525 1.524-5.66.755-6.944-.357-.591-1.838-1.213-2.133-1.754z" class="cls-2" transform="translate(-328.08 -154.271)"/>
        <path id="Path_91" d="M339.156 172.846a18.744 18.744 0 0 1 1.371-2.714c.274-.5.974-2.331 2.471-1.25l4.072 4.161c.221.228.854.7.863 1.136.016.714-.693.85-1.182.542-.966-.609-4.217-3.32-4.886-3.36-.931-.061-1.872 1.413-2.709 1.485z" class="cls-2" transform="translate(-332.285 -156.779)"/>
        <path id="Path_92" d="M343.932 176.684a.948.948 0 1 1-.824 1.705c-1.092-.509-.308-2.315.824-1.705z" class="cls-2" transform="translate(-334.039 -160.879)"/>
        <path id="Path_93" d="M351.993 151.928a.946.946 0 0 1-.824 1.7c-1.2-.468-.274-2.375.824-1.7z" class="cls-2" transform="translate(-338.142 -148.204)"/>
        <path id="Path_94" d="M335.916 151.9c.99.448.347 2.345-.874 1.716a.963.963 0 0 1 .874-1.716z" class="cls-2" transform="translate(-329.918 -148.208)"/>
        <path id="Path_95" d="M356.832 167.188a.942.942 0 1 1-.563 1.793c-1.032-.381-.626-2.166.563-1.793z" class="cls-2" transform="translate(-340.738 -156.058)"/>
        <path id="Path_96" d="M330.8 167.189a.943.943 0 1 1-.565 1.8c-.999-.355-.641-2.219.565-1.8z" class="cls-2" transform="translate(-327.424 -156.054)"/>
    </g>
    <g id="Group_82" transform="translate(0 44.436)">
        <g id="Group_80" transform="translate(0 0)">
            <g id="Group_79">
                <path id="Path_97" d="M70.382 235.712h1.127a6.86 6.86 0 0 1 1.306.08 1.466 1.466 0 0 1 .792.459 1.409 1.409 0 0 1 .008 1.749 1.5 1.5 0 0 1-.826.463 7.793 7.793 0 0 1-1.438.086h-.4v2.463h-.565zm.565.519v1.8l.957.011a2.643 2.643 0 0 0 .849-.1.858.858 0 0 0 .423-.319.847.847 0 0 0 .154-.495.859.859 0 0 0-.559-.8 2.606 2.606 0 0 0-.825-.093z" class="cls-1" transform="translate(-70.382 -235.579)"/>
                <path id="Path_98" d="M82.36 235.439a3.04 3.04 0 0 1 2.15.8 2.689 2.689 0 0 1 0 3.95 2.965 2.965 0 0 1-2.106.811 3 3 0 0 1-2.123-.807 2.57 2.57 0 0 1-.865-1.952 2.686 2.686 0 0 1 .394-1.415 2.779 2.779 0 0 1 1.075-1.021 3.043 3.043 0 0 1 1.475-.366zm.024.515a2.45 2.45 0 0 0-1.189.306 2.289 2.289 0 0 0-.878.825 2.183 2.183 0 0 0-.317 1.158 2.1 2.1 0 0 0 .7 1.6 2.383 2.383 0 0 0 1.684.651 2.547 2.547 0 0 0 1.218-.3 2.219 2.219 0 0 0 .874-.819 2.186 2.186 0 0 0 .314-1.153 2.137 2.137 0 0 0-.314-1.141 2.285 2.285 0 0 0-.883-.816 2.516 2.516 0 0 0-1.208-.311z" class="cls-1" transform="translate(-75.005 -235.439)"/>
                <path id="Path_99" d="M93.285 235.712h.581l1.155 3.818 1.62-3.818h.118l1.6 3.818 1.175-3.818h.576l-1.624 5.3h-.105L96.7 237l-1.711 4.009h-.1z" class="cls-1" transform="translate(-82.1 -235.579)"/>
                <path id="Path_100" d="M109.419 235.712h3.24v.519h-2.675v1.66h2.652v.519h-2.652v2.082h2.652v.519h-3.217z" class="cls-1" transform="translate(-90.355 -235.579)"/>
                <path id="Path_101" d="M118.116 235.712h1.126a7.238 7.238 0 0 1 1.276.072 1.477 1.477 0 0 1 .819.463 1.269 1.269 0 0 1 .315.874 1.3 1.3 0 0 1-.838 1.257 3.03 3.03 0 0 1-1.115.171l2.034 2.46h-.7L119 238.55h-.319v2.46h-.566zm.566.519v1.8l.974.007a2.586 2.586 0 0 0 .838-.1.857.857 0 0 0 .575-.818.82.82 0 0 0-.153-.484.848.848 0 0 0-.4-.312 2.609 2.609 0 0 0-.832-.094z" class="cls-1" transform="translate(-94.804 -235.579)"/>
                <path id="Path_102" d="M127.844 235.712h3.24v.519h-2.675v1.66h2.652v.519h-2.652v2.082h2.652v.519h-3.217z" class="cls-1" transform="translate(-99.781 -235.579)"/>
                <path id="Path_103" d="M136.478 241.01v-5.3h1.172a6.365 6.365 0 0 1 1.842.191 2.443 2.443 0 0 1 1.285.937 2.712 2.712 0 0 1 .463 1.588 2.648 2.648 0 0 1-.367 1.4 2.29 2.29 0 0 1-.953.893 3.8 3.8 0 0 1-1.644.288zm.542-.5h.653a6.469 6.469 0 0 0 1.626-.137 1.867 1.867 0 0 0 1-.7 2.054 2.054 0 0 0 .365-1.236 2.166 2.166 0 0 0-.4-1.31 2 2 0 0 0-1.1-.745 7.109 7.109 0 0 0-1.749-.151h-.4z" class="cls-1" transform="translate(-104.199 -235.579)"/>
                <path id="Path_104" d="M152.967 235.712h1.114a2.807 2.807 0 0 1 1.034.149 1.247 1.247 0 0 1 .571.459 1.206 1.206 0 0 1 .21.688 1.174 1.174 0 0 1-.184.643 1.332 1.332 0 0 1-.539.47 2.13 2.13 0 0 1 .678.329 1.336 1.336 0 0 1 .37.458 1.3 1.3 0 0 1 .132.582 1.386 1.386 0 0 1-.5 1.078 1.941 1.941 0 0 1-1.335.441h-1.553zm.553.519v1.7h.324a2.688 2.688 0 0 0 .866-.1.932.932 0 0 0 .44-.324.819.819 0 0 0 .162-.492.679.679 0 0 0-.272-.571 1.437 1.437 0 0 0-.864-.207zm0 2.229v2.031h.7a2.685 2.685 0 0 0 .909-.113 1.026 1.026 0 0 0 .464-.355.881.881 0 0 0-.072-1.138 1.286 1.286 0 0 0-.677-.36 5.3 5.3 0 0 0-1.006-.064z" class="cls-1" transform="translate(-112.635 -235.579)"/>
                <path id="Path_105" d="M161.278 235.712h.651l1.446 2.185 1.424-2.185h.653l-1.791 2.766v2.532h-.561v-2.532z" class="cls-1" transform="translate(-116.887 -235.579)"/>
                <path id="Path_106" d="M177.979 235.712l2.636 5.3h-.61l-.889-1.744h-2.436l-.881 1.744h-.63l2.671-5.3zm-.071 1.126l-.969 1.917h1.933z" class="cls-1" transform="translate(-123.994 -235.579)"/>
                <path id="Path_107" d="M187.951 235.712h.565v5.3h-.565z" class="cls-1" transform="translate(-130.534 -235.579)"/>
                <path id="Path_108" d="M205.148 241.01v-5.3h1.172a6.363 6.363 0 0 1 1.841.191 2.441 2.441 0 0 1 1.285.937 2.708 2.708 0 0 1 .463 1.588 2.648 2.648 0 0 1-.367 1.4 2.289 2.289 0 0 1-.954.893 3.8 3.8 0 0 1-1.643.288zm.542-.5h.653a6.472 6.472 0 0 0 1.626-.137 1.87 1.87 0 0 0 1-.7 2.058 2.058 0 0 0 .365-1.236 2.163 2.163 0 0 0-.4-1.31 1.993 1.993 0 0 0-1.1-.745 7.107 7.107 0 0 0-1.749-.151h-.4z" class="cls-1" transform="translate(-139.332 -235.579)"/>
                <path id="Path_109" d="M217.2 235.712h1.126a7.238 7.238 0 0 1 1.276.072 1.477 1.477 0 0 1 .819.463 1.269 1.269 0 0 1 .315.874 1.3 1.3 0 0 1-.837 1.257 3.03 3.03 0 0 1-1.115.171l2.034 2.46h-.7l-2.034-2.46h-.319v2.46h-.565zm.565.519v1.8l.974.007a2.582 2.582 0 0 0 .837-.1.857.857 0 0 0 .575-.818.82.82 0 0 0-.153-.484.851.851 0 0 0-.4-.312 2.612 2.612 0 0 0-.832-.094z" class="cls-1" transform="translate(-145.501 -235.579)"/>
                <path id="Path_110" d="M226.76 235.712h.565v5.3h-.565z" class="cls-1" transform="translate(-150.39 -235.579)"/>
                <path id="Path_111" d="M229.688 235.712h.615l1.874 4.093 1.9-4.093h.615l-2.46 5.3h-.123z" class="cls-1" transform="translate(-151.888 -235.579)"/>
                <path id="Path_112" d="M241.9 235.712h3.24v.519h-2.68v1.66h2.652v.519h-2.652v2.082h2.652v.519H241.9z" class="cls-1" transform="translate(-158.133 -235.579)"/>
                <path id="Path_113" d="M250.536 241.01v-5.3h.123l3.763 4.061v-4.061h.558v5.3h-.127l-3.732-4.01v4.011z" class="cls-1" transform="translate(-162.554 -235.579)"/>
                <path id="Path_114" d="M266.946 235.712h1.115a2.807 2.807 0 0 1 1.034.149 1.25 1.25 0 0 1 .571.459 1.2 1.2 0 0 1 .21.688 1.174 1.174 0 0 1-.184.643 1.329 1.329 0 0 1-.539.47 2.133 2.133 0 0 1 .678.329 1.335 1.335 0 0 1 .37.458 1.3 1.3 0 0 1 .132.582 1.389 1.389 0 0 1-.5 1.078 1.943 1.943 0 0 1-1.336.441h-1.553zm.554.519v1.7h.323a2.687 2.687 0 0 0 .867-.1.926.926 0 0 0 .439-.324.816.816 0 0 0 .162-.492.679.679 0 0 0-.271-.571 1.44 1.44 0 0 0-.865-.207zm0 2.229v2.031h.7a2.677 2.677 0 0 0 .908-.113 1.021 1.021 0 0 0 .464-.355.88.88 0 0 0-.071-1.138 1.29 1.29 0 0 0-.677-.36 5.3 5.3 0 0 0-1.005-.064z" class="cls-1" transform="translate(-170.95 -235.579)"/>
                <path id="Path_115" d="M275.258 235.712h.65l1.447 2.185 1.424-2.185h.653l-1.791 2.766v2.532h-.558v-2.532z" class="cls-1" transform="translate(-175.203 -235.579)"/>
                <path id="Path_116" d="M289.024 236.231v-.519h3.1v.519h-1.261v4.779h-.576v-4.779z" class="cls-1" transform="translate(-182.246 -235.579)"/>
                <path id="Path_117" d="M298.823 235.712l2.637 5.3h-.61l-.889-1.744h-2.436l-.881 1.744h-.63l2.671-5.3zm-.072 1.126l-.968 1.917h1.933z" class="cls-1" transform="translate(-185.822 -235.579)"/>
                <path id="Path_118" d="M308.959 235.712h.565v4.788h2.176v.512h-2.741z" class="cls-1" transform="translate(-192.445 -235.579)"/>
                <path id="Path_119" d="M316.412 235.712h3.24v.519h-2.675v1.66h2.652v.519h-2.652v2.082h2.652v.519h-3.217z" class="cls-1" transform="translate(-196.258 -235.579)"/>
                <path id="Path_120" d="M325.054 241.01v-5.3h.123l3.763 4.061v-4.061h.558v5.3h-.127l-3.733-4.01v4.011z" class="cls-1" transform="translate(-200.68 -235.579)"/>
                <path id="Path_121" d="M335.821 236.231v-.519h3.1v.519h-1.261v4.779h-.576v-4.779z" class="cls-1" transform="translate(-206.189 -235.579)"/>
            </g>
        </g>
        <g id="Group_81" transform="translate(61.484 2.442)">
            <path id="Path_122" d="M196.734 240.44a.454.454 0 0 1 .323.125.414.414 0 0 1 0 .61.473.473 0 0 1-.645 0 .414.414 0 0 1 0-.61.454.454 0 0 1 .322-.125z" class="cls-1" transform="translate(-196.278 -240.44)"/>
        </g>
    </g>
</svg>
